<?xml version="1.0" standalone="no"?>
<!DOCTYPE svg PUBLIC "-//W3C//DTD SVG 20010904//EN"
 "http://www.w3.org/TR/2001/REC-SVG-20010904/DTD/svg10.dtd">
<svg version="1.0" xmlns="http://www.w3.org/2000/svg"
 width="601.000000pt" height="601.000000pt" viewBox="0 0 601.000000 601.000000"
 preserveAspectRatio="xMidYMid meet">

<g transform="translate(0.000000,601.000000) scale(0.100000,-0.100000)"
fill="#000000" stroke="none">
<path d="M0 3005 l0 -3005 3005 0 3005 0 0 3005 0 3005 -3005 0 -3005 0 0
-3005z m2740 2146 l0 -109 223 -5 c153 -3 245 -10 297 -21 255 -57 445 -160
611 -333 157 -164 247 -338 284 -549 44 -252 -6 -489 -146 -696 -41 -60 -133
-146 -176 -164 -24 -11 -22 -12 33 -18 32 -4 92 -19 132 -32 250 -83 453 -268
576 -524 121 -252 145 -533 72 -823 -101 -398 -393 -713 -781 -845 -167 -57
-329 -71 -807 -72 l-328 0 0 -95 0 -95 -390 0 -390 0 0 94 0 93 -61 7 c-34 3
-115 6 -180 6 l-119 0 0 395 0 394 93 3 92 3 3 1243 2 1242 -95 0 -95 0 0 395
0 395 180 0 180 0 0 110 0 110 395 0 395 0 0 -109z"/>
<path d="M2765 4371 c-91 -33 -139 -63 -206 -130 -101 -101 -149 -218 -149
-361 0 -139 46 -255 145 -360 l52 -55 82 -350 c45 -192 84 -358 87 -367 5 -16
-4 -18 -85 -18 l-91 0 0 -486 0 -486 413 4 c348 4 421 7 472 21 275 78 430
290 394 542 -19 136 -107 268 -219 329 -102 56 -167 68 -388 73 -202 5 -204 6
-198 27 3 11 42 176 87 366 l82 345 54 58 c260 282 145 736 -215 847 -86 27
-245 27 -317 1z m275 -97 c242 -72 367 -353 256 -574 -39 -78 -73 -117 -141
-161 l-62 -41 -47 -272 c-26 -149 -64 -365 -84 -480 -20 -115 -38 -204 -40
-198 -2 7 -40 223 -85 482 l-82 469 -45 29 c-63 40 -127 113 -158 180 -24 51
-27 68 -27 172 0 107 2 119 29 175 52 105 166 199 273 224 61 14 155 12 213
-5z"/>
<path d="M2832 4175 c-130 -40 -214 -159 -214 -301 0 -85 20 -137 83 -207 114
-130 318 -134 443 -10 95 93 120 242 61 358 -70 137 -230 205 -373 160z"/>
</g>
</svg>
